<svg width="19" height="17" viewBox="0 0 19 17" fill="none" xmlns="http://www.w3.org/2000/svg">
<path d="M1.33356 8.33325C1.33356 4.71934 1.33356 2.9119 2.31021 1.78968C3.28687 0.667462 4.85769 0.666504 8.00016 0.666504H11.3335C14.4759 0.666504 16.0476 0.666504 17.0234 1.78968C17.9992 2.91286 18.0001 4.71934 18.0001 8.33325C18.0001 11.9472 18.0001 13.7546 17.0234 14.8768C16.0467 15.999 14.4759 16 11.3335 16H8.00016C4.85769 16 3.28604 16 2.31021 14.8768C1.33439 13.7536 1.33356 11.9472 1.33356 8.33325Z" stroke="white"/>
<path d="M8.00016 12.1666H4.66686M11.3335 12.1666H10.0835M1.33356 6.4165H18.0001" stroke="white" stroke-linecap="round"/>
</svg>
