<?xml version="1.0" encoding="UTF-8"?>
<svg version="1.1" xmlns="http://www.w3.org/2000/svg" width="48" height="48">
<path d="M0 0 C4.68796317 2.8950501 8.77605467 6.42344712 10.234375 11.89453125 C11.16656452 18.74158704 11.3930195 24.99387098 7.671875 31.01953125 C3.66347868 35.99068326 0.31000422 38.47580101 -6.0078125 39.3359375 C-13.1275177 39.69575056 -18.34453314 39.19135672 -23.98828125 34.640625 C-29.08369757 29.63479842 -30.03494232 26.05750776 -30.390625 19.01953125 C-30.17838344 12.13997715 -28.58962241 7.80486419 -23.765625 2.89453125 C-17.29271618 -2.6344117 -7.84970384 -3.13766411 0 0 Z " fill="#E9E8EA" transform="translate(33.765625,5.10546875)"/>
<path d="M0 0 C3.3 0 6.6 0 10 0 C10.61875 1.3921875 10.61875 1.3921875 11.25 2.8125 C13.36270675 6.74872222 13.36270675 6.74872222 17 9 C19.05476433 8.94916047 20.97839521 8.69142431 23 8.32421875 C25 8 25 8 29 8 C30.703125 9.53125 30.703125 9.53125 32.25 11.5 C32.77078125 12.1496875 33.2915625 12.799375 33.828125 13.46875 C34.40820312 14.22671875 34.40820312 14.22671875 35 15 C29.26203402 19.98953564 23.91692293 20.83622371 16.41796875 20.546875 C10.41093151 19.58574904 6.43649261 16.90785766 2.56640625 12.2890625 C-0.08521099 8.23364789 -0.38654767 4.735209 0 0 Z " fill="#1A98E0" transform="translate(4,24)"/>
<path d="M0 0 C0.86625 0.66 1.7325 1.32 2.625 2 C1.18254029 5.36573933 -0.458468 7.75010389 -3.375 10 C-5.6875 9.75 -5.6875 9.75 -8.375 9 C-12.87242696 8.51813283 -14.63261962 8.41900666 -18.25 11.25 C-20.65469402 13.98182625 -20.65469402 13.98182625 -21.375 18 C-24.675 18 -27.975 18 -31.375 18 C-32.13151932 12.073932 -30.65556755 8.80681312 -27.12109375 4.0234375 C-20.61852217 -3.51198103 -8.71353739 -4.97916422 0 0 Z " fill="#EA303F" transform="translate(35.375,6)"/>
<path d="M0 0 C3.80597311 3.55224157 5.78512904 5.94873192 6.3359375 11.20703125 C6.41335408 18.35258204 6.39828152 23.2272555 2 29 C-2.2742558 27.4169423 -4.26531794 24.49431596 -7 21 C-6.67 20.46375 -6.34 19.9275 -6 19.375 C-4.74058838 16.3838974 -4.73144165 14.22270017 -5 11 C-5.66 9.68 -6.32 8.36 -7 7 C-4.69 4.69 -2.38 2.38 0 0 Z " fill="#F3A202" transform="translate(38,9)"/>
<path d="M0 0 C2.75479843 2.22161164 4.75592108 4.77492694 6.9375 7.5625 C1.77533423 11.31680238 -1.62264376 13.23331836 -8.0625 12.5625 C-8.0625 9.2625 -8.0625 5.9625 -8.0625 2.5625 C-2.74174528 -0.58158233 -2.74174528 -0.58158233 0 0 Z " fill="#31B36F" transform="translate(32.0625,31.4375)"/>
<path d="M0 0 C1.14926266 0.95421808 2.29430541 1.91352045 3.4375 2.875 C4.39462891 3.67550781 4.39462891 3.67550781 5.37109375 4.4921875 C7 6 7 6 8 8 C7.06421005 10.35981813 6.06652192 12.69631264 5 15 C1.7 15 -1.6 15 -5 15 C-5.67081836 8.56014376 -3.75430238 5.16216577 0 0 Z " fill="#9C2EC8" transform="translate(9,9)"/>
<path d="M0 0 C3.3 0 6.6 0 10 0 C10.49940808 6.11774896 9.24900602 9.02495953 6 14 C1.7257442 12.4169423 -0.26531794 9.49431596 -3 6 C-2.01 4.02 -1.02 2.04 0 0 Z " fill="#FED544" transform="translate(34,24)"/>
<path d="M0 0 C3.3 0 6.6 0 10 0 C11.13866026 2.41128054 12.02166924 4.30658436 11.9375 7 C10.53716561 9.98738004 8.45682712 11.84278594 6 14 C5.34 14 4.68 14 4 14 C0.75099398 9.02495953 -0.49940808 6.11774896 0 0 Z " fill="#1A5DC3" transform="translate(4,24)"/>
<path d="M0 0 C0 3.3 0 6.6 0 10 C-2.41128054 11.13866026 -4.30658436 12.02166924 -7 11.9375 C-9.98738004 10.53716561 -11.84278594 8.45682712 -14 6 C-14 5.34 -14 4.68 -14 4 C-9.02495953 0.75099398 -6.11774896 -0.49940808 0 0 Z " fill="#D62E59" transform="translate(24,4)"/>
<path d="M0 0 C3.81684226 1.55500981 6.19195732 4.03595495 9 7 C8.01 8.485 8.01 8.485 7 10 C2.7257442 8.4169423 0.73468206 5.49431596 -2 2 C-1.34 1.34 -0.68 0.68 0 0 Z " fill="#F9CB2C" transform="translate(33,28)"/>
<path d="M0 0 C1.1725131 0.95117134 2.33787015 1.91117009 3.5 2.875 C4.47453125 3.67550781 4.47453125 3.67550781 5.46875 4.4921875 C5.9740625 4.98976563 6.479375 5.48734375 7 6 C7 6.66 7 7.32 7 8 C3.2047869 6.50902342 1.38957269 4.24299151 -1 1 C-0.67 0.67 -0.34 0.34 0 0 Z " fill="#F8C314" transform="translate(33,30)"/>
</svg>
