<svg width="27" height="32" viewBox="0 0 27 32" fill="none" xmlns="http://www.w3.org/2000/svg">
<path fill-rule="evenodd" clip-rule="evenodd" d="M6.11538 26.5H22.1154C23.013 26.5 23.8739 26.1149 24.5087 25.4294C25.1434 24.7439 25.5 23.8142 25.5 22.8447V15.5342C25.5 15.2698 25.4028 15.0162 25.2296 14.8293C25.0565 14.6423 24.8217 14.5373 24.5769 14.5373H20.5769V4.16033C20.5769 2.26889 18.5966 1.16833 17.1714 2.26757L16.956 2.43371C16.4844 2.79529 15.9201 2.98908 15.3417 2.98813C14.7633 2.98718 14.1995 2.79152 13.7289 2.4284C12.9432 1.8245 12.0028 1.5 11.0385 1.5C10.0741 1.5 9.1337 1.8245 8.348 2.4284C7.87738 2.79152 7.31364 2.98718 6.73525 2.98813C6.15685 2.98908 5.59257 2.79529 5.12092 2.43371L4.90554 2.26757C3.48031 1.16833 1.5 2.26756 1.5 4.16033V21.5155C1.5 22.8375 1.98626 24.1053 2.85181 25.0401C3.71737 25.9749 4.89131 26.5 6.11538 26.5ZM9.42123 4.05001C9.89378 3.68773 10.459 3.49311 11.0385 3.49311C11.618 3.49311 12.1831 3.68773 12.6557 4.05001C13.4393 4.65495 14.3782 4.98072 15.3415 4.98191C16.3047 4.98311 17.2443 4.65965 18.0292 4.05665L18.2446 3.8905C18.2906 3.85516 18.3447 3.83415 18.4009 3.82976C18.4572 3.82538 18.5135 3.83779 18.5637 3.86565C18.6139 3.8935 18.656 3.93572 18.6855 3.9877C18.715 4.03967 18.7306 4.09939 18.7308 4.16033V22.8447C18.7308 23.4429 18.8637 24.0078 19.1 24.5062H6.11538C5.38094 24.5062 4.67657 24.1911 4.15724 23.6303C3.63791 23.0694 3.34615 22.3087 3.34615 21.5155V4.16033C3.3463 4.09939 3.36196 4.03967 3.39142 3.9877C3.42089 3.93572 3.46301 3.8935 3.5132 3.86565C3.56339 3.83779 3.6197 3.82538 3.67598 3.82976C3.73226 3.83415 3.78634 3.85516 3.83231 3.8905L4.04769 4.05665C4.83261 4.65965 5.7722 4.98311 6.73545 4.98191C7.6987 4.98072 8.63759 4.65495 9.42123 4.05001ZM20.5769 22.8447V16.5311H23.6538V22.8447C23.6538 23.2854 23.4918 23.708 23.2032 24.0196C22.9147 24.3312 22.5234 24.5062 22.1154 24.5062C21.7074 24.5062 21.316 24.3312 21.0275 24.0196C20.739 23.708 20.5769 23.2854 20.5769 22.8447Z" fill="white"/>
<path d="M15.1875 13C15.1875 12.7348 15.0986 12.4804 14.9404 12.2929C14.7821 12.1054 14.5675 12 14.3438 12H7.59375C7.36997 12 7.15536 12.1054 6.99713 12.2929C6.83889 12.4804 6.75 12.7348 6.75 13C6.75 13.2652 6.83889 13.5196 6.99713 13.7071C7.15536 13.8946 7.36997 14 7.59375 14H14.3438C14.5675 14 14.7821 13.8946 14.9404 13.7071C15.0986 13.5196 15.1875 13.2652 15.1875 13ZM14.0625 17C14.0625 16.7348 13.9736 16.4804 13.8154 16.2929C13.6571 16.1054 13.4425 16 13.2188 16H7.59375C7.36997 16 7.15536 16.1054 6.99713 16.2929C6.83889 16.4804 6.75 16.7348 6.75 17C6.75 17.2652 6.83889 17.5196 6.99713 17.7071C7.15536 17.8946 7.36997 18 7.59375 18H13.2188C13.4425 18 13.6571 17.8946 13.8154 17.7071C13.9736 17.5196 14.0625 17.2652 14.0625 17ZM14.3438 20C14.5675 20 14.7821 20.1054 14.9404 20.2929C15.0986 20.4804 15.1875 20.7348 15.1875 21C15.1875 21.2652 15.0986 21.5196 14.9404 21.7071C14.7821 21.8946 14.5675 22 14.3438 22H7.59375C7.36997 22 7.15536 21.8946 6.99713 21.7071C6.83889 21.5196 6.75 21.2652 6.75 21C6.75 20.7348 6.83889 20.4804 6.99713 20.2929C7.15536 20.1054 7.36997 20 7.59375 20H14.3438Z" fill="white"/>
</svg>
