<svg width="20" height="22" viewBox="0 0 20 22" fill="none" xmlns="http://www.w3.org/2000/svg">
<path d="M3.95838 10.5426C3.89283 11.7962 3.96825 13.1305 2.84853 13.9701C2.59109 14.1627 2.38219 14.4128 2.23846 14.7004C2.09473 14.988 2.02014 15.3052 2.02063 15.6268C2.02063 16.522 2.72282 17.2852 3.63692 17.2852H16.5672C17.4813 17.2852 18.1835 16.522 18.1835 15.6268C18.1835 14.9749 17.8764 14.3607 17.3556 13.9701C16.2358 13.1305 16.3113 11.7962 16.2457 10.5426C16.1649 8.96774 15.4824 7.48401 14.3391 6.39787C13.1958 5.31172 11.679 4.70612 10.102 4.70612C8.52507 4.70612 7.00832 5.31172 5.86501 6.39787C4.72171 7.48401 4.03918 8.96774 3.95838 10.5426Z" stroke="black" stroke-width="2.30898" stroke-linecap="round" stroke-linejoin="round"/>
<path d="M12.7958 17.2855C12.7958 17.9999 12.512 18.6851 12.0068 19.1903C11.5016 19.6955 10.8164 19.9793 10.102 19.9793C9.38757 19.9793 8.70239 19.6955 8.1972 19.1903C7.69201 18.6851 7.4082 17.9999 7.4082 17.2855M8.75511 3.03076C8.75511 3.77425 9.35852 4.71439 10.102 4.71439C10.8455 4.71439 11.4489 3.77425 11.4489 3.03076C11.4489 2.28727 10.8455 2.02058 10.102 2.02058C9.35852 2.02058 8.75511 2.28727 8.75511 3.03076Z" stroke="black" stroke-width="2.30898" stroke-linecap="round" stroke-linejoin="round"/>
</svg>
