<svg width="27" height="28" viewBox="0 0 27 28" fill="none" xmlns="http://www.w3.org/2000/svg">
<path fill-rule="evenodd" clip-rule="evenodd" d="M13.5036 9.43246C12.2638 9.43246 11.0749 9.9137 10.1983 10.7703C9.3217 11.6269 8.82922 12.7887 8.82922 14.0001C8.82922 15.2115 9.3217 16.3733 10.1983 17.2299C11.0749 18.0865 12.2638 18.5677 13.5036 18.5677C14.7433 18.5677 15.9322 18.0865 16.8088 17.2299C17.6854 16.3733 18.1779 15.2115 18.1779 14.0001C18.1779 12.7887 17.6854 11.6269 16.8088 10.7703C15.9322 9.9137 14.7433 9.43246 13.5036 9.43246ZM10.699 14.0001C10.699 13.2732 10.9944 12.5762 11.5204 12.0622C12.0464 11.5483 12.7597 11.2595 13.5036 11.2595C14.2474 11.2595 14.9607 11.5483 15.4867 12.0622C16.0127 12.5762 16.3082 13.2732 16.3082 14.0001C16.3082 14.7269 16.0127 15.424 15.4867 15.938C14.9607 16.4519 14.2474 16.7407 13.5036 16.7407C12.7597 16.7407 12.0464 16.4519 11.5204 15.938C10.9944 15.424 10.699 14.7269 10.699 14.0001Z" fill="white"/>
<path fill-rule="evenodd" clip-rule="evenodd" d="M13.4688 0.906128C12.9141 0.906128 12.4517 0.906128 12.0728 0.930489C11.6854 0.945734 11.3033 1.02395 10.9422 1.16192C10.5262 1.33011 10.1482 1.57675 9.82969 1.88773C9.51123 2.19871 9.25858 2.56794 9.08618 2.97435C8.90544 3.40066 8.85682 3.85134 8.83688 4.34099C8.83465 4.52002 8.78604 4.69557 8.69558 4.85128C8.60512 5.00698 8.47577 5.13774 8.31959 5.23137C8.15857 5.31702 7.97796 5.36139 7.79463 5.36032C7.61131 5.35926 7.43125 5.3128 7.27129 5.22528C6.82754 4.99629 6.40373 4.81236 5.93505 4.75146C5.48874 4.6941 5.03523 4.72319 4.60043 4.83709C4.16563 4.95099 3.75804 5.14747 3.40094 5.41529C3.09853 5.65217 2.83861 5.93662 2.63186 6.25695C2.41995 6.56633 2.18811 6.95732 1.91138 7.42627L1.88022 7.47986C1.60226 7.9488 1.37165 8.33979 1.20463 8.67353C1.03012 9.02189 0.893003 9.36538 0.843143 9.7454C0.724229 10.626 0.968141 11.5168 1.52123 12.2217C1.80917 12.5883 2.18437 12.855 2.60817 13.1157C2.76602 13.2072 2.89753 13.3363 2.99041 13.4909C3.08328 13.6456 3.13446 13.8207 3.13918 14C3.13446 14.1793 3.08328 14.3544 2.99041 14.5091C2.89753 14.6637 2.76602 14.7928 2.60817 14.8843C2.18437 15.1449 1.81042 15.4117 1.52123 15.7783C1.24715 16.1273 1.04609 16.5256 0.929529 16.9504C0.812968 17.3753 0.783191 17.8185 0.841897 18.2546C0.893003 18.6346 1.02887 18.9781 1.20338 19.3265C1.37165 19.6602 1.60226 20.0512 1.88022 20.5201L1.91138 20.5737C2.18811 21.0427 2.41995 21.4337 2.63186 21.743C2.85248 22.0634 3.08932 22.3521 3.40094 22.5835C3.75795 22.8515 4.16549 23.0482 4.6003 23.1623C5.03511 23.2764 5.48866 23.3057 5.93505 23.2485C6.40373 23.1876 6.82754 23.0049 7.27129 22.7747C7.4311 22.6874 7.61093 22.6411 7.79401 22.64C7.9771 22.6389 8.15748 22.6832 8.31834 22.7686C8.47579 22.8611 8.60628 22.9915 8.6973 23.1474C8.78832 23.3034 8.83681 23.4795 8.83813 23.659C8.85682 24.1487 8.90544 24.5993 9.08742 25.0256C9.25955 25.4322 9.51194 25.8016 9.83019 26.1128C10.1484 26.4239 10.5263 26.6708 10.9422 26.8393C11.3037 26.9855 11.6776 27.0427 12.0728 27.0683C12.4517 27.0939 12.9141 27.0939 13.4688 27.0939H13.5312C14.0858 27.0939 14.5483 27.0939 14.9272 27.0695C15.3236 27.0427 15.6963 26.9855 16.0578 26.8381C16.4738 26.6699 16.8518 26.4233 17.1703 26.1123C17.4888 25.8013 17.7414 25.4321 17.9138 25.0256C18.0946 24.5993 18.1432 24.1487 18.1631 23.659C18.1651 23.4798 18.2136 23.304 18.3041 23.148C18.3946 22.9921 18.524 22.8611 18.6804 22.7674C18.8415 22.6819 19.0222 22.6378 19.2055 22.6391C19.3888 22.6403 19.5688 22.687 19.7287 22.7747C20.1725 23.0037 20.5963 23.1876 21.0649 23.2473C21.9661 23.3635 22.8777 23.1252 23.5991 22.5847C23.9107 22.3508 24.1475 22.0634 24.3681 21.743C24.58 21.4337 24.8119 21.0427 25.0886 20.5737L25.1198 20.5201C25.3977 20.0512 25.6283 19.6602 25.7954 19.3265C25.9699 18.9781 26.107 18.6334 26.1568 18.2546C26.2758 17.374 26.0319 16.4832 25.4788 15.7783C25.1908 15.4117 24.8156 15.1449 24.3918 14.8843C24.234 14.7928 24.1025 14.6637 24.0096 14.5091C23.9167 14.3544 23.8655 14.1793 23.8608 14C23.8608 13.6614 24.0503 13.3252 24.3918 13.1157C24.8156 12.855 25.1896 12.5883 25.4788 12.2217C25.7528 11.8727 25.9539 11.4744 26.0705 11.0496C26.187 10.6247 26.2168 10.1815 26.1581 9.7454C26.0994 9.37098 25.9772 9.00873 25.7966 8.67353C25.5837 8.26888 25.358 7.87079 25.1198 7.47986L25.0886 7.42627C24.8609 7.02928 24.6207 6.63932 24.3681 6.25695C24.1613 5.93705 23.9014 5.65302 23.5991 5.41651C23.242 5.14847 22.8345 4.95178 22.3997 4.83767C21.9649 4.72356 21.5113 4.69427 21.0649 4.75146C20.5963 4.81236 20.1725 4.99507 19.7287 5.22528C19.5689 5.31258 19.3891 5.35892 19.206 5.35999C19.0229 5.36105 18.8425 5.31681 18.6817 5.23137C18.525 5.13804 18.3952 5.0074 18.3043 4.85168C18.2133 4.69596 18.1644 4.52024 18.1619 4.34099C18.1432 3.85134 18.0946 3.40066 17.9126 2.97435C17.7404 2.56783 17.488 2.19843 17.1698 1.88724C16.8516 1.57605 16.4737 1.32917 16.0578 1.1607C15.6963 1.01453 15.3224 0.957285 14.9272 0.931707C14.5483 0.906128 14.0858 0.906128 13.5312 0.906128H13.4688ZM11.6577 2.84889C11.7537 2.80992 11.8995 2.77459 12.1999 2.75389C12.5078 2.73318 12.9067 2.73318 13.5 2.73318C14.0933 2.73318 14.4922 2.73318 14.8001 2.75389C15.1005 2.77459 15.2463 2.80992 15.3423 2.84889C15.725 3.00358 16.0279 3.29957 16.1862 3.6735C16.236 3.79043 16.2772 3.97436 16.2934 4.40919C16.3308 5.37388 16.8406 6.30324 17.7455 6.81359C18.6505 7.32395 19.7287 7.29106 20.6025 6.84039C20.9964 6.63698 21.1796 6.57973 21.3092 6.5639C21.7188 6.51102 22.1331 6.61923 22.461 6.86475C22.5433 6.92687 22.648 7.03284 22.8163 7.27645C22.9895 7.52736 23.189 7.86476 23.4856 8.36659C23.7823 8.86842 23.9805 9.20703 24.1163 9.47744C24.2497 9.74175 24.2909 9.88304 24.3033 9.98414C24.3574 10.3843 24.2467 10.7892 23.9954 11.1096C23.9157 11.2107 23.7736 11.3374 23.3971 11.5688C22.5595 12.0828 21.9911 12.9793 21.9911 14C21.9911 15.0207 22.5595 15.9172 23.3971 16.4312C23.7736 16.6626 23.9157 16.7893 23.9954 16.8904C24.2472 17.2107 24.3569 17.6151 24.3033 18.0159C24.2909 18.117 24.2485 18.2595 24.1163 18.5226C23.9805 18.7942 23.7823 19.1316 23.4856 19.6334C23.189 20.1352 22.9883 20.4726 22.8163 20.7235C22.648 20.9672 22.5433 21.0731 22.461 21.1352C22.1331 21.3808 21.7188 21.489 21.3092 21.4361C21.1796 21.4203 20.9976 21.363 20.6025 21.1596C19.7299 20.7089 18.6505 20.6748 17.7455 21.1852C16.8406 21.6955 16.3308 22.6261 16.2934 23.5908C16.2772 24.0256 16.236 24.2096 16.1862 24.3265C16.1079 24.5114 15.993 24.6794 15.8482 24.8209C15.7034 24.9624 15.5315 25.0746 15.3423 25.1511C15.2463 25.1901 15.1005 25.2254 14.8001 25.2461C14.4922 25.2668 14.0933 25.2668 13.5 25.2668C12.9067 25.2668 12.5078 25.2668 12.1999 25.2461C11.8995 25.2254 11.7537 25.1901 11.6577 25.1511C11.4685 25.0746 11.2965 24.9624 11.1518 24.8209C11.007 24.6794 10.8921 24.5114 10.8138 24.3265C10.764 24.2096 10.7228 24.0256 10.7066 23.5908C10.6692 22.6261 10.1594 21.6968 9.25445 21.1864C8.3495 20.676 7.27129 20.7089 6.3975 21.1596C6.00361 21.363 5.82038 21.4203 5.69074 21.4361C5.28119 21.489 4.86691 21.3808 4.53898 21.1352C4.45672 21.0731 4.35201 20.9672 4.18373 20.7235C3.94925 20.3669 3.72602 20.0034 3.51437 19.6334C3.21771 19.1316 3.01951 18.793 2.88365 18.5226C2.75027 18.2582 2.70914 18.117 2.69667 18.0159C2.64256 17.6157 2.7533 17.2108 3.00456 16.8904C3.08433 16.7893 3.22643 16.6626 3.60287 16.4312C4.44051 15.9172 5.00891 15.0207 5.00891 14C5.00891 12.9793 4.44051 12.0828 3.60287 11.5688C3.22643 11.3374 3.08433 11.2107 3.00456 11.1096C2.7533 10.7892 2.64256 10.3843 2.69667 9.98414C2.70914 9.88304 2.75152 9.74053 2.88365 9.47744C3.01951 9.20581 3.21771 8.86842 3.51437 8.36659C3.81103 7.86476 4.01172 7.52736 4.18373 7.27645C4.35201 7.03284 4.45672 6.92687 4.53898 6.86475C4.86691 6.61923 5.28119 6.51102 5.69074 6.5639C5.82038 6.57973 6.00236 6.63698 6.3975 6.84039C7.27004 7.29106 8.3495 7.32517 9.25445 6.81359C10.1594 6.30324 10.6692 5.37388 10.7066 4.40919C10.7228 3.97436 10.764 3.79043 10.8138 3.6735C10.9721 3.29957 11.275 3.00358 11.6577 2.84889Z" fill="white"/>
</svg>
