<?xml version="1.0" encoding="UTF-8"?>
<svg version="1.1" xmlns="http://www.w3.org/2000/svg" width="512" height="512">
<path d="M0 0 C3.0092263 1.50461315 4.99226275 2.65529178 7.50390625 4.72265625 C8.15617187 5.25632812 8.8084375 5.79 9.48046875 6.33984375 C10.51107422 7.19255859 10.51107422 7.19255859 11.5625 8.0625 C12.27921875 8.6503125 12.9959375 9.238125 13.734375 9.84375 C15.82546889 11.55942309 17.91284347 13.2795413 20 15 C21.8326808 16.50079719 23.66592062 18.00091229 25.5 19.5 C26.36238281 20.20640625 27.22476562 20.9128125 28.11328125 21.640625 C34.39627699 26.7758475 40.70028106 31.88531876 47 37 C55.04170892 43.52898616 63.08106785 50.06039294 71.09375 56.625 C74.72305284 59.59088189 78.36129332 62.54566832 82 65.5 C87.37417451 69.86338936 92.73890371 74.23789702 98.09375 78.625 C101.72305284 81.59088189 105.36129332 84.54566832 109 87.5 C113.50644208 91.15886173 118.00976104 94.82125001 122.5 98.5 C129.64854276 104.35560753 136.82606826 110.17555379 144 116 C152.04170892 122.52898616 160.08106785 129.06039294 168.09375 135.625 C171.72305284 138.59088189 175.36129332 141.54566832 179 144.5 C183.50644208 148.15886173 188.00976104 151.82125001 192.5 155.5 C199.64854276 161.35560753 206.82606826 167.17555379 214 173 C223.01299212 180.31756165 232.02234448 187.63908329 241 195 C239.45973555 199.26534772 236.253889 201.38911999 232.75 204 C227.61727911 207.92160695 222.62803231 211.9530129 217.75 216.1875 C213.15800534 220.16257508 208.51884195 224.04451131 203.75390625 227.8125 C200.16819579 230.66072391 196.61515157 233.54820832 193.0625 236.4375 C192.02403931 237.28187622 192.02403931 237.28187622 190.96459961 238.14331055 C185.30066898 242.75115202 179.64763187 247.37219847 174 252 C172.16678352 253.50014281 170.33344854 255.00014082 168.5 256.5 C167.5925 257.2425 166.685 257.985 165.75 258.75 C157.5 265.5 157.5 265.5 154.73046875 267.765625 C152.96177205 269.21297051 151.19351457 270.66085301 149.42578125 272.109375 C143.26820312 277.15325065 137.09370109 282.17596456 130.91455078 287.19335938 C125.2650574 291.7818077 119.62950595 296.38705127 114 301 C112.16678352 302.50014281 110.33344854 304.00014082 108.5 305.5 C107.5925 306.2425 106.685 306.985 105.75 307.75 C86.5 323.5 86.5 323.5 83.73046875 325.765625 C81.96177205 327.21297051 80.19351457 328.66085301 78.42578125 330.109375 C72.26820312 335.15325065 66.09370109 340.17596456 59.91455078 345.19335938 C54.2650574 349.7818077 48.62950595 354.38705127 43 359 C41.16678352 360.50014281 39.33344854 362.00014082 37.5 363.5 C36.5925 364.2425 35.685 364.985 34.75 365.75 C26.5 372.5 26.5 372.5 23.7578125 374.7421875 C21.89658472 376.26596888 20.0372517 377.79206716 18.1796875 379.3203125 C1.53220339 393 1.53220339 393 0 393 C0 353.07 0 313.14 0 272 C-59.35513262 279.65872679 -109.76354274 296.2062587 -157 333 C-157.95132813 333.73605469 -158.90265625 334.47210938 -159.8828125 335.23046875 C-198.86930796 366.24509872 -224.09741886 406.62185039 -243.5625 451.8125 C-244.43692798 453.83180162 -245.31177052 455.85092377 -246.18701172 457.86987305 C-250.34922354 467.48148539 -254.47867672 477.10648079 -258.56640625 486.75 C-259.26292021 488.38957523 -259.95945284 490.02914253 -260.65600586 491.66870117 C-261.94757412 494.70975628 -263.22962037 497.75458847 -264.50610352 500.80200195 C-265.0793212 502.15587549 -265.65279144 503.50964214 -266.2265625 504.86328125 C-266.71721191 506.03157471 -267.20786133 507.19986816 -267.71337891 508.40356445 C-269 511 -269 511 -271 512 C-271.07065646 496.02070377 -271.12326137 480.04145098 -271.15543652 464.06203651 C-271.17078527 456.6394485 -271.19163941 449.21695856 -271.22631836 441.79443359 C-271.25659435 435.31110601 -271.27566159 428.82784955 -271.28226548 422.34445322 C-271.28611451 418.92410155 -271.29489543 415.50395304 -271.31719017 412.08366776 C-271.44525262 389.92730314 -270.2606871 367.94211807 -265.4375 346.25 C-265.18919434 345.11643066 -264.94088867 343.98286133 -264.68505859 342.81494141 C-260.03554228 322.60073412 -253.21691318 302.58505379 -244 284 C-243.36288086 282.69337402 -243.36288086 282.69337402 -242.71289062 281.36035156 C-233.16636944 261.91049283 -221.69627545 243.79814326 -208 227 C-207.5870166 226.48550293 -207.1740332 225.97100586 -206.74853516 225.44091797 C-200.12280468 217.22701619 -192.87213611 209.67133736 -185.4375 202.1875 C-184.14428833 200.88039062 -184.14428833 200.88039062 -182.82495117 199.546875 C-176.85941102 193.61013751 -170.59372935 188.22515747 -164 183 C-162.92826536 182.13035626 -161.85662498 181.26059633 -160.78515625 180.390625 C-119.14018891 147.64824035 -70.19025947 128.96953474 -18 122 C-17.19095215 121.89107422 -16.3819043 121.78214844 -15.54833984 121.66992188 C-10.2571725 121.01468314 -5.41565515 121 0 121 C0 81.07 0 41.14 0 0 Z M31 65 C31 93.38 31 121.76 31 151 C25.39 151 19.78 151 14 151 C-58.70779954 152.07795107 -122.28677142 182.2518657 -172.75390625 233.6015625 C-177.15794002 238.15938792 -181.13790198 242.97727148 -185 248 C-185.44520996 248.56348145 -185.89041992 249.12696289 -186.34912109 249.70751953 C-213.77267593 284.4205279 -234.29718733 328.56624793 -238 373 C-237.46761719 372.33226562 -236.93523437 371.66453125 -236.38671875 370.9765625 C-233.54342949 367.43059456 -230.67937847 363.90190362 -227.8125 360.375 C-227.28591797 359.72660156 -226.75933594 359.07820313 -226.21679688 358.41015625 C-225.09842244 357.03390098 -223.97821688 355.65913224 -222.85644531 354.28564453 C-221.53923175 352.66389895 -220.23231014 351.03376966 -218.93261719 349.39794922 C-213.52825607 342.65503556 -207.7601228 336.45598936 -201.625 330.375 C-200.75617188 329.4984375 -199.88734375 328.621875 -198.9921875 327.71875 C-192.97360923 321.71797818 -186.65475158 316.2803438 -180 311 C-178.8310239 310.04680698 -177.66288517 309.09258476 -176.49609375 308.13671875 C-136.8540696 276.3927224 -90.18021008 255.95174995 -40.5 246.1875 C-39.01717529 245.89504395 -39.01717529 245.89504395 -37.50439453 245.59667969 C-14.83883049 241.37550222 7.98172569 241.12284265 31 240 C31 268.71 31 297.42 31 327 C34.76127911 324.74323253 37.79773152 322.64606837 41.125 319.875 C42.08664062 319.07835937 43.04828125 318.28171875 44.0390625 317.4609375 C45.01617187 316.64882813 45.99328125 315.83671875 47 315 C48.83195304 313.49831455 50.6652621 311.99828167 52.5 310.5 C53.4075 309.7575 54.315 309.015 55.25 308.25 C74.5 292.5 74.5 292.5 77.26953125 290.234375 C79.03822795 288.78702949 80.80648543 287.33914699 82.57421875 285.890625 C88.73179688 280.84674935 94.90629891 275.82403544 101.08544922 270.80664062 C106.7349426 266.2181923 112.37049405 261.61294873 118 257 C119.83321648 255.49985719 121.66655146 253.99985918 123.5 252.5 C124.4075 251.7575 125.315 251.015 126.25 250.25 C156.5 225.5 156.5 225.5 159.26953125 223.234375 C161.03822795 221.78702949 162.80648543 220.33914699 164.57421875 218.890625 C167.38098576 216.59150942 170.1899957 214.2951562 173 212 C173.65822754 211.46197754 174.31645508 210.92395508 174.99462891 210.36962891 C177.16188283 208.599106 179.33077735 206.83061007 181.5 205.0625 C182.19504639 204.4943457 182.89009277 203.92619141 183.60620117 203.34082031 C184.59003784 202.5398291 184.59003784 202.5398291 185.59375 201.72265625 C186.17833984 201.24578369 186.76292969 200.76891113 187.36523438 200.27758789 C188.85614151 199.11242705 190.42559817 198.04960122 192 197 C192 196.34 192 195.68 192 195 C189.9726835 193.276629 187.93468615 191.6618929 185.8125 190.0625 C180.93907209 186.31828099 176.1609764 182.50574083 171.5 178.5 C167.08495313 174.71730786 162.59080799 171.06725036 158 167.5 C152.85122701 163.49918743 147.8464859 159.36609011 142.89453125 155.125 C139.00750386 151.81208562 135.03259494 148.63355562 131 145.5 C125.76175352 141.42895569 120.66219038 137.2265902 115.61767578 132.91845703 C111.62079022 129.50916874 107.55282307 126.20596542 103.4375 122.94140625 C99.96908645 120.17890379 96.54569657 117.36254718 93.1171875 114.55078125 C89.42089398 111.52224436 85.71000173 108.51171492 82 105.5 C77.49352505 101.84117903 72.99023871 98.17874979 68.5 94.5 C61.35047143 88.64552077 54.18240502 82.8140892 47 77 C46.28537598 76.42121094 45.57075195 75.84242187 44.83447266 75.24609375 C42.74617757 73.55694125 40.65489023 71.8715758 38.5625 70.1875 C37.91764648 69.66567139 37.27279297 69.14384277 36.60839844 68.60620117 C34.08192755 66.12950591 34.08192755 66.12950591 31 65 Z " fill="#000000" transform="translate(271,0)"/>
</svg>
